ffmpeg version git-2026-04-19-de18feb Copyright (c) 2000-2026 the FFmpeg developers
  built with gcc 9 (Ubuntu 9.4.0-1ubuntu1~20.04.2)
  configuration: --enable-shared --enable-gpl --enable-libx264
  libavutil      60. 30.100 / 60. 30.100
  libavcodec     62. 30.100 / 62. 30.100
  libavformat    62. 13.102 / 62. 13.102
  libavdevice    62.  4.100 / 62.  4.100
  libavfilter    11. 15.101 / 11. 15.101
  libswscale      9.  7.100 /  9.  7.100
  libswresample   6.  4.100 /  6.  4.100
[in#0/x11grab @ 0x55bfef40ac40] Stream #0: not enough frames to estimate rate; consider increasing probesize
Input #0, x11grab, from ':0.0+0,0':
  Duration: N/A, start: 1777443031.413857, bitrate: 3678192 kb/s
  Stream #0:0: Video: rawvideo (BGR[0] / 0x524742), bgr0, 2870x1602, 3678192 kb/s, 25 fps, 1000k tbr, 1000k tbn, start 1777443031.413857
Stream mapping:
  Stream #0:0 -> #0:0 (rawvideo (native) -> h264 (libx264))
[libx264 @ 0x55bfef418f00] using cpu capabilities: MMX2 SSE2Fast SSSE3 SSE4.2 AVX FMA3 BMI2 AVX2
[libx264 @ 0x55bfef418f00] profile High, level 5.0
[libx264 @ 0x55bfef418f00] 264 - core 155 r2917 0a84d98 - H.264/MPEG-4 AVC codec - Copyleft 2003-2018 - http://www.videolan.org/x264.html - options: cabac=1 ref=1 deblock=1:0:0 analyse=0x3:0x113 me=hex subme=2 psy=1 psy_rd=1.00:0.00 mixed_ref=0 me_range=16 chroma_me=1 trellis=0 8x8dct=1 cqm=0 deadzone=21,11 fast_pskip=1 chroma_qp_offset=0 threads=6 lookahead_threads=2 sliced_threads=0 nr=0 decimate=1 interlaced=0 bluray_compat=0 constrained_intra=0 bframes=3 b_pyramid=2 b_adapt=1 b_bias=0 direct=1 weightb=1 open_gop=0 weightp=1 keyint=250 keyint_min=25 scenecut=40 intra_refresh=0 rc_lookahead=10 rc=crf mbtree=1 crf=23.0 qcomp=0.60 qpmin=0 qpmax=69 qpstep=4 ip_ratio=1.40 aq=1:1.00
Output #0, matroska, to '/home/lmy/catkin_ws/recordings_tmp/exp_15a_point/screen.mkv':
  Metadata:
    encoder         : Lavf62.13.102
  Stream #0:0: Video: h264 (H264 / 0x34363248), yuv420p(tv, progressive), 2870x1602, q=2-31, 25 fps, 1k tbn
    Metadata:
      encoder         : Lavc62.30.100 libx264
    Side data:
      CPB properties: bitrate max/min/avg: 0/0/0 buffer size: 0 vbv_delay: N/A
frame=    0 fps=0.0 q=0.0 size=       0KiB time=N/A bitrate=N/A speed=N/A elapsed=0:00:00.50    frame=    6 fps=6.0 q=28.0 size=       1KiB time=00:00:00.16 bitrate=  29.7kbits/s speed=0.16x elapsed=0:00:01.00    frame=   18 fps= 12 q=28.0 size=       1KiB time=00:00:00.64 bitrate=   7.4kbits/s speed=0.426x elapsed=0:00:01.50    frame=   31 fps= 15 q=28.0 size=       1KiB time=00:00:01.16 bitrate=   4.1kbits/s speed=0.58x elapsed=0:00:02.00    frame=   43 fps= 17 q=28.0 size=       1KiB time=00:00:01.64 bitrate=   2.9kbits/s speed=0.656x elapsed=0:00:02.50    frame=   55 fps= 18 q=28.0 size=       1KiB time=00:00:02.16 bitrate=   2.2kbits/s speed=0.72x elapsed=0:00:03.00    frame=   68 fps= 19 q=28.0 size=       1KiB time=00:00:02.64 bitrate=   1.8kbits/s speed=0.754x elapsed=0:00:03.50    frame=   81 fps= 20 q=28.0 size=       1KiB time=00:00:03.16 bitrate=   1.5kbits/s speed=0.789x elapsed=0:00:04.00    frame=   93 fps= 21 q=28.0 size=       1KiB time=00:00:03.64 bitrate=   1.3kbits/s speed=0.808x elapsed=0:00:04.50    frame=  106 fps= 21 q=28.0 size=       1KiB time=00:00:04.16 bitrate=   1.1kbits/s speed=0.831x elapsed=0:00:05.00    frame=  118 fps= 21 q=28.0 size=       1KiB time=00:00:04.64 bitrate=   1.0kbits/s speed=0.843x elapsed=0:00:05.50    frame=  131 fps= 22 q=28.0 size=     174KiB time=00:00:05.16 bitrate= 276.8kbits/s speed=0.86x elapsed=0:00:06.00    frame=  143 fps= 22 q=28.0 size=     174KiB time=00:00:05.64 bitrate= 253.3kbits/s speed=0.867x elapsed=0:00:06.50    frame=  156 fps= 22 q=28.0 size=     174KiB time=00:00:06.16 bitrate= 231.9kbits/s speed=0.88x elapsed=0:00:07.00    frame=  168 fps= 22 q=28.0 size=     174KiB time=00:00:06.64 bitrate= 215.1kbits/s speed=0.885x elapsed=0:00:07.50    frame=  181 fps= 23 q=28.0 size=     174KiB time=00:00:07.16 bitrate= 199.5kbits/s speed=0.895x elapsed=0:00:08.00    frame=  193 fps= 23 q=28.0 size=     174KiB time=00:00:07.64 bitrate= 187.0kbits/s speed=0.898x elapsed=0:00:08.50    frame=  206 fps= 23 q=28.0 size=     174KiB time=00:00:08.16 bitrate= 175.1kbits/s speed=0.906x elapsed=0:00:09.00    frame=  218 fps= 23 q=28.0 size=     174KiB time=00:00:08.64 bitrate= 165.3kbits/s speed=0.909x elapsed=0:00:09.50    frame=  231 fps= 23 q=28.0 size=     174KiB time=00:00:09.16 bitrate= 155.9kbits/s speed=0.915x elapsed=0:00:10.00    frame=  243 fps= 23 q=28.0 size=     174KiB time=00:00:09.64 bitrate= 148.2kbits/s speed=0.917x elapsed=0:00:10.50    frame=  256 fps= 23 q=28.0 size=     256KiB time=00:00:10.16 bitrate= 206.4kbits/s speed=0.923x elapsed=0:00:11.01    frame=  269 fps= 23 q=28.0 size=     256KiB time=00:00:10.68 bitrate= 196.4kbits/s speed=0.928x elapsed=0:00:11.51    frame=  281 fps= 23 q=28.0 size=     256KiB time=00:00:11.16 bitrate= 187.9kbits/s speed=0.929x elapsed=0:00:12.01    frame=  294 fps= 23 q=28.0 size=     256KiB time=00:00:11.68 bitrate= 179.6kbits/s speed=0.933x elapsed=0:00:12.51    frame=  306 fps= 24 q=28.0 size=     256KiB time=00:00:12.16 bitrate= 172.5kbits/s speed=0.934x elapsed=0:00:13.01    frame=  319 fps= 24 q=28.0 size=     256KiB time=00:00:12.68 bitrate= 165.4kbits/s speed=0.938x elapsed=0:00:13.51    frame=  331 fps= 24 q=28.0 size=     256KiB time=00:00:13.16 bitrate= 159.4kbits/s speed=0.939x elapsed=0:00:14.02    frame=  344 fps= 24 q=28.0 size=     256KiB time=00:00:13.68 bitrate= 153.3kbits/s speed=0.942x elapsed=0:00:14.52    frame=  356 fps= 24 q=28.0 size=     256KiB time=00:00:14.16 bitrate= 148.1kbits/s speed=0.943x elapsed=0:00:15.02    frame=  368 fps= 24 q=28.0 size=     256KiB time=00:00:14.64 bitrate= 143.2kbits/s speed=0.943x elapsed=0:00:15.52    frame=  381 fps= 24 q=28.0 size=     256KiB time=00:00:15.16 bitrate= 138.3kbits/s speed=0.946x elapsed=0:00:16.02    frame=  394 fps= 24 q=28.0 size=     256KiB time=00:00:15.68 bitrate= 133.7kbits/s speed=0.949x elapsed=0:00:16.52    frame=  406 fps= 24 q=28.0 size=     256KiB time=00:00:16.16 bitrate= 129.8kbits/s speed=0.949x elapsed=0:00:17.02    frame=  419 fps= 24 q=28.0 size=     256KiB time=00:00:16.68 bitrate= 125.7kbits/s speed=0.952x elapsed=0:00:17.52    frame=  431 fps= 24 q=28.0 size=     256KiB time=00:00:17.16 bitrate= 122.2kbits/s speed=0.952x elapsed=0:00:18.02    frame=  444 fps= 24 q=28.0 size=     256KiB time=00:00:17.68 bitrate= 118.6kbits/s speed=0.954x elapsed=0:00:18.52    frame=  457 fps= 24 q=28.0 size=     256KiB time=00:00:18.20 bitrate= 115.2kbits/s speed=0.956x elapsed=0:00:19.02    frame=  469 fps= 24 q=28.0 size=     256KiB time=00:00:18.68 bitrate= 112.3kbits/s speed=0.957x elapsed=0:00:19.52    frame=  482 fps= 24 q=28.0 size=     256KiB time=00:00:19.20 bitrate= 109.2kbits/s speed=0.959x elapsed=0:00:20.03    frame=  494 fps= 24 q=28.0 size=     256KiB time=00:00:19.68 bitrate= 106.6kbits/s speed=0.959x elapsed=0:00:20.53    frame=  506 fps= 24 q=28.0 size=     512KiB time=00:00:20.16 bitrate= 208.1kbits/s speed=0.959x elapsed=0:00:21.03    frame=  519 fps= 24 q=28.0 size=     512KiB time=00:00:20.68 bitrate= 202.8kbits/s speed=0.96x elapsed=0:00:21.53    frame=  532 fps= 24 q=28.0 size=     512KiB time=00:00:21.20 bitrate= 197.8kbits/s speed=0.962x elapsed=0:00:22.03    frame=  544 fps= 24 q=28.0 size=     512KiB time=00:00:21.68 bitrate= 193.5kbits/s speed=0.962x elapsed=0:00:22.53    frame=  556 fps= 24 q=28.0 size=     512KiB time=00:00:22.16 bitrate= 189.3kbits/s speed=0.962x elapsed=0:00:23.03    frame=  569 fps= 24 q=28.0 size=     512KiB time=00:00:22.68 bitrate= 184.9kbits/s speed=0.964x elapsed=0:00:23.53    frame=  582 fps= 24 q=28.0 size=     512KiB time=00:00:23.20 bitrate= 180.8kbits/s speed=0.965x elapsed=0:00:24.03    frame=  594 fps= 24 q=28.0 size=     512KiB time=00:00:23.68 bitrate= 177.1kbits/s speed=0.965x elapsed=0:00:24.53    frame=  606 fps= 24 q=28.0 size=     512KiB time=00:00:24.16 bitrate= 173.6kbits/s speed=0.965x elapsed=0:00:25.03    frame=  619 fps= 24 q=28.0 size=     512KiB time=00:00:24.68 bitrate= 169.9kbits/s speed=0.967x elapsed=0:00:25.53    frame=  631 fps= 24 q=28.0 size=     768KiB time=00:00:25.16 bitrate= 250.1kbits/s speed=0.966x elapsed=0:00:26.03    frame=  644 fps= 24 q=28.0 size=     768KiB time=00:00:25.68 bitrate= 245.0kbits/s speed=0.968x elapsed=0:00:26.53    frame=  657 fps= 24 q=28.0 size=     768KiB time=00:00:26.20 bitrate= 240.1kbits/s speed=0.969x elapsed=0:00:27.03    frame=  669 fps= 24 q=28.0 size=     768KiB time=00:00:26.68 bitrate= 235.8kbits/s speed=0.969x elapsed=0:00:27.53    frame=  681 fps= 24 q=28.0 size=     768KiB time=00:00:27.16 bitrate= 231.6kbits/s speed=0.969x elapsed=0:00:28.03    frame=  694 fps= 24 q=28.0 size=     768KiB time=00:00:27.68 bitrate= 227.3kbits/s speed=0.97x elapsed=0:00:28.53    frame=  707 fps= 24 q=28.0 size=     768KiB time=00:00:28.20 bitrate= 223.1kbits/s speed=0.971x elapsed=0:00:29.03    frame=  719 fps= 24 q=28.0 size=     768KiB time=00:00:28.68 bitrate= 219.4kbits/s speed=0.971x elapsed=0:00:29.53    frame=  732 fps= 24 q=28.0 size=     768KiB time=00:00:29.20 bitrate= 215.5kbits/s speed=0.972x elapsed=0:00:30.03    frame=  744 fps= 24 q=28.0 size=     768KiB time=00:00:29.68 bitrate= 212.0kbits/s speed=0.972x elapsed=0:00:30.54    frame=  757 fps= 24 q=28.0 size=     768KiB time=00:00:30.20 bitrate= 208.3kbits/s speed=0.973x elapsed=0:00:31.04    frame=  769 fps= 24 q=28.0 size=     768KiB time=00:00:30.68 bitrate= 205.1kbits/s speed=0.973x elapsed=0:00:31.54    frame=  782 fps= 24 q=28.0 size=     768KiB time=00:00:31.20 bitrate= 201.6kbits/s speed=0.973x elapsed=0:00:32.05    frame=  795 fps= 24 q=28.0 size=     768KiB time=00:00:31.72 bitrate= 198.3kbits/s speed=0.974x elapsed=0:00:32.55    frame=  807 fps= 24 q=28.0 size=     768KiB time=00:00:32.20 bitrate= 195.4kbits/s speed=0.974x elapsed=0:00:33.05    frame=  820 fps= 24 q=28.0 size=     768KiB time=00:00:32.72 bitrate= 192.3kbits/s speed=0.975x elapsed=0:00:33.55    frame=  832 fps= 24 q=28.0 size=     768KiB time=00:00:33.20 bitrate= 189.5kbits/s speed=0.975x elapsed=0:00:34.05    frame=  844 fps= 24 q=28.0 size=     768KiB time=00:00:33.68 bitrate= 186.8kbits/s speed=0.975x elapsed=0:00:34.55    frame=  857 fps= 24 q=28.0 size=     768KiB time=00:00:34.20 bitrate= 184.0kbits/s speed=0.976x elapsed=0:00:35.05    frame=  870 fps= 24 q=28.0 size=     768KiB time=00:00:34.72 bitrate= 181.2kbits/s speed=0.977x elapsed=0:00:35.55    frame=  882 fps= 24 q=28.0 size=    1024KiB time=00:00:35.20 bitrate= 238.3kbits/s speed=0.976x elapsed=0:00:36.05    frame=  894 fps= 24 q=28.0 size=    1024KiB time=00:00:35.68 bitrate= 235.1kbits/s speed=0.976x elapsed=0:00:36.55    frame=  907 fps= 24 q=28.0 size=    1024KiB time=00:00:36.20 bitrate= 231.7kbits/s speed=0.977x elapsed=0:00:37.05    frame=  918 fps= 24 q=28.0 size=    1024KiB time=00:00:36.64 bitrate= 228.9kbits/s speed=0.975x elapsed=0:00:37.56    frame=  932 fps= 24 q=28.0 size=    1024KiB time=00:00:37.20 bitrate= 225.5kbits/s speed=0.977x elapsed=0:00:38.06    frame=  945 fps= 25 q=28.0 size=    1024KiB time=00:00:37.72 bitrate= 222.4kbits/s speed=0.978x elapsed=0:00:38.56    frame=  957 fps= 24 q=28.0 size=    1024KiB time=00:00:38.20 bitrate= 219.6kbits/s speed=0.978x elapsed=0:00:39.06    frame=  968 fps= 24 q=28.0 size=    1024KiB time=00:00:38.64 bitrate= 217.1kbits/s speed=0.977x elapsed=0:00:39.56    frame=  982 fps= 25 q=28.0 size=    1024KiB time=00:00:39.20 bitrate= 214.0kbits/s speed=0.978x elapsed=0:00:40.06    frame=  995 fps= 25 q=28.0 size=    1024KiB time=00:00:39.72 bitrate= 211.2kbits/s speed=0.979x elapsed=0:00:40.56    frame= 1008 fps= 25 q=28.0 size=    1024KiB time=00:00:40.24 bitrate= 208.5kbits/s speed=0.98x elapsed=0:00:41.06    frame= 1020 fps= 25 q=28.0 size=    1024KiB time=00:00:40.72 bitrate= 206.0kbits/s speed=0.979x elapsed=0:00:41.57    frame= 1032 fps= 25 q=28.0 size=    1024KiB time=00:00:41.20 bitrate= 203.6kbits/s speed=0.979x elapsed=0:00:42.07    frame= 1045 fps= 25 q=28.0 size=    1024KiB time=00:00:41.72 bitrate= 201.1kbits/s speed=0.98x elapsed=0:00:42.57    frame= 1057 fps= 25 q=28.0 size=    1024KiB time=00:00:42.20 bitrate= 198.8kbits/s speed=0.98x elapsed=0:00:43.07    frame= 1070 fps= 25 q=28.0 size=    1024KiB time=00:00:42.72 bitrate= 196.4kbits/s speed=0.98x elapsed=0:00:43.57    frame= 1083 fps= 25 q=28.0 size=    1024KiB time=00:00:43.24 bitrate= 194.0kbits/s speed=0.981x elapsed=0:00:44.07    frame= 1095 fps= 25 q=28.0 size=    1024KiB time=00:00:43.72 bitrate= 191.9kbits/s speed=0.981x elapsed=0:00:44.57    frame= 1108 fps= 25 q=28.0 size=    1024KiB time=00:00:44.24 bitrate= 189.6kbits/s speed=0.981x elapsed=0:00:45.07    frame= 1120 fps= 25 q=28.0 size=    1024KiB time=00:00:44.72 bitrate= 187.6kbits/s speed=0.981x elapsed=0:00:45.57    frame= 1133 fps= 25 q=28.0 size=    1280KiB time=00:00:45.24 bitrate= 231.8kbits/s speed=0.982x elapsed=0:00:46.07    frame= 1145 fps= 25 q=28.0 size=    1280KiB time=00:00:45.72 bitrate= 229.3kbits/s speed=0.982x elapsed=0:00:46.57    frame= 1157 fps= 25 q=28.0 size=    1280KiB time=00:00:46.20 bitrate= 227.0kbits/s speed=0.981x elapsed=0:00:47.07    frame= 1170 fps= 25 q=28.0 size=    1280KiB time=00:00:46.72 bitrate= 224.4kbits/s speed=0.982x elapsed=0:00:47.58    frame= 1183 fps= 25 q=28.0 size=    1280KiB time=00:00:47.24 bitrate= 222.0kbits/s speed=0.982x elapsed=0:00:48.08    frame= 1195 fps= 25 q=28.0 size=    1280KiB time=00:00:47.72 bitrate= 219.7kbits/s speed=0.982x elapsed=0:00:48.58    frame= 1208 fps= 25 q=28.0 size=    1280KiB time=00:00:48.24 bitrate= 217.4kbits/s speed=0.983x elapsed=0:00:49.08    frame= 1220 fps= 25 q=28.0 size=    1280KiB time=00:00:48.72 bitrate= 215.2kbits/s speed=0.983x elapsed=0:00:49.58    frame= 1232 fps= 25 q=28.0 size=    1280KiB time=00:00:49.20 bitrate= 213.1kbits/s speed=0.982x elapsed=0:00:50.08    frame= 1245 fps= 25 q=28.0 size=    1280KiB time=00:00:49.72 bitrate= 210.9kbits/s speed=0.983x elapsed=0:00:50.58    frame= 1258 fps= 25 q=28.0 size=    1536KiB time=00:00:50.24 bitrate= 250.5kbits/s speed=0.983x elapsed=0:00:51.08    frame= 1270 fps= 25 q=28.0 size=    1536KiB time=00:00:50.72 bitrate= 248.1kbits/s speed=0.983x elapsed=0:00:51.58    frame= 1283 fps= 25 q=28.0 size=    1536KiB time=00:00:51.24 bitrate= 245.6kbits/s speed=0.984x elapsed=0:00:52.08    frame= 1295 fps= 25 q=28.0 size=    1536KiB time=00:00:51.72 bitrate= 243.3kbits/s speed=0.983x elapsed=0:00:52.59    frame= 1308 fps= 25 q=28.0 size=    1536KiB time=00:00:52.24 bitrate= 240.9kbits/s speed=0.984x elapsed=0:00:53.09    frame= 1320 fps= 25 q=28.0 size=    1536KiB time=00:00:52.72 bitrate= 238.7kbits/s speed=0.984x elapsed=0:00:53.59    frame= 1333 fps= 25 q=28.0 size=    1536KiB time=00:00:53.24 bitrate= 236.3kbits/s speed=0.984x elapsed=0:00:54.09    frame= 1345 fps= 25 q=28.0 size=    1536KiB time=00:00:53.72 bitrate= 234.2kbits/s speed=0.984x elapsed=0:00:54.59    frame= 1358 fps= 25 q=28.0 size=    1536KiB time=00:00:54.24 bitrate= 232.0kbits/s speed=0.985x elapsed=0:00:55.09    frame= 1370 fps= 25 q=28.0 size=    1536KiB time=00:00:54.72 bitrate= 230.0kbits/s speed=0.984x elapsed=0:00:55.59    frame= 1383 fps= 25 q=28.0 size=    1536KiB time=00:00:55.24 bitrate= 227.8kbits/s speed=0.985x elapsed=0:00:56.09    frame= 1396 fps= 25 q=28.0 size=    1536KiB time=00:00:55.76 bitrate= 225.7kbits/s speed=0.985x elapsed=0:00:56.59    frame= 1408 fps= 25 q=28.0 size=    1536KiB time=00:00:56.24 bitrate= 223.7kbits/s speed=0.985x elapsed=0:00:57.09    frame= 1421 fps= 25 q=28.0 size=    1536KiB time=00:00:56.76 bitrate= 221.7kbits/s speed=0.985x elapsed=0:00:57.59    frame= 1433 fps= 25 q=28.0 size=    1536KiB time=00:00:57.24 bitrate= 219.8kbits/s speed=0.985x elapsed=0:00:58.09    frame= 1446 fps= 25 q=28.0 size=    1536KiB time=00:00:57.76 bitrate= 217.8kbits/s speed=0.986x elapsed=0:00:58.59    frame= 1458 fps= 25 q=28.0 size=    1536KiB time=00:00:58.24 bitrate= 216.1kbits/s speed=0.985x elapsed=0:00:59.10    frame= 1471 fps= 25 q=28.0 size=    1536KiB time=00:00:58.76 bitrate= 214.1kbits/s speed=0.986x elapsed=0:00:59.60    frame= 1483 fps= 25 q=28.0 size=    1536KiB time=00:00:59.24 bitrate= 212.4kbits/s speed=0.986x elapsed=0:01:00.10    frame= 1496 fps= 25 q=25.0 size=    1536KiB time=00:00:59.76 bitrate= 210.6kbits/s speed=0.986x elapsed=0:01:00.60    frame= 1508 fps= 25 q=28.0 size=    1792KiB time=00:01:00.24 bitrate= 243.7kbits/s speed=0.986x elapsed=0:01:01.10    frame= 1521 fps= 25 q=28.0 size=    1792KiB time=00:01:00.76 bitrate= 241.6kbits/s speed=0.986x elapsed=0:01:01.60    frame= 1533 fps= 25 q=28.0 size=    1792KiB time=00:01:01.24 bitrate= 239.7kbits/s speed=0.986x elapsed=0:01:02.10    frame= 1545 fps= 25 q=28.0 size=    1792KiB time=00:01:01.72 bitrate= 237.8kbits/s speed=0.986x elapsed=0:01:02.60    frame= 1558 fps= 25 q=28.0 size=    1792KiB time=00:01:02.24 bitrate= 235.9kbits/s speed=0.986x elapsed=0:01:03.10    frame= 1571 fps= 25 q=28.0 size=    1792KiB time=00:01:02.76 bitrate= 233.9kbits/s speed=0.987x elapsed=0:01:03.60    frame= 1583 fps= 25 q=28.0 size=    1792KiB time=00:01:03.24 bitrate= 232.1kbits/s speed=0.987x elapsed=0:01:04.10    frame= 1596 fps= 25 q=28.0 size=    1792KiB time=00:01:03.76 bitrate= 230.2kbits/s speed=0.987x elapsed=0:01:04.60    frame= 1608 fps= 25 q=28.0 size=    1792KiB time=00:01:04.24 bitrate= 228.5kbits/s speed=0.987x elapsed=0:01:05.10    frame= 1621 fps= 25 q=28.0 size=    1792KiB time=00:01:04.76 bitrate= 226.7kbits/s speed=0.987x elapsed=0:01:05.60    frame= 1633 fps= 25 q=28.0 size=    2048KiB time=00:01:05.24 bitrate= 257.2kbits/s speed=0.987x elapsed=0:01:06.10    frame= 1645 fps= 25 q=28.0 size=    2048KiB time=00:01:05.76 bitrate= 255.1kbits/s speed=0.987x elapsed=0:01:06.60    frame= 1658 fps= 25 q=28.0 size=    2048KiB time=00:01:06.24 bitrate= 253.3kbits/s speed=0.987x elapsed=0:01:07.10    frame= 1671 fps= 25 q=28.0 size=    2048KiB time=00:01:06.76 bitrate= 251.3kbits/s speed=0.987x elapsed=0:01:07.60    frame= 1684 fps= 25 q=28.0 size=    2048KiB time=00:01:07.28 bitrate= 249.4kbits/s speed=0.988x elapsed=0:01:08.10    frame= 1696 fps= 25 q=28.0 size=    2048KiB time=00:01:07.76 bitrate= 247.6kbits/s speed=0.988x elapsed=0:01:08.60    frame= 1708 fps= 25 q=28.0 size=    2048KiB time=00:01:08.24 bitrate= 245.9kbits/s speed=0.987x elapsed=0:01:09.10    frame= 1721 fps= 25 q=28.0 size=    2048KiB time=00:01:08.76 bitrate= 244.0kbits/s speed=0.988x elapsed=0:01:09.60    frame= 1733 fps= 25 q=28.0 size=    2048KiB time=00:01:09.24 bitrate= 242.3kbits/s speed=0.988x elapsed=0:01:10.10    frame= 1746 fps= 25 q=25.0 size=    2048KiB time=00:01:09.76 bitrate= 240.5kbits/s speed=0.988x elapsed=0:01:10.60    frame= 1758 fps= 25 q=28.0 size=    2048KiB time=00:01:10.24 bitrate= 238.9kbits/s speed=0.988x elapsed=0:01:11.10    frame= 1771 fps= 25 q=28.0 size=    2048KiB time=00:01:10.76 bitrate= 237.1kbits/s speed=0.988x elapsed=0:01:11.61    frame= 1783 fps= 25 q=28.0 size=    2048KiB time=00:01:11.24 bitrate= 235.5kbits/s speed=0.988x elapsed=0:01:12.11    frame= 1796 fps= 25 q=28.0 size=    2048KiB time=00:01:11.76 bitrate= 233.8kbits/s speed=0.988x elapsed=0:01:12.61    frame= 1809 fps= 25 q=28.0 size=    2048KiB time=00:01:12.28 bitrate= 232.1kbits/s speed=0.989x elapsed=0:01:13.11    frame= 1821 fps= 25 q=28.0 size=    2048KiB time=00:01:12.76 bitrate= 230.6kbits/s speed=0.988x elapsed=0:01:13.61    frame= 1834 fps= 25 q=28.0 size=    2048KiB time=00:01:13.28 bitrate= 228.9kbits/s speed=0.989x elapsed=0:01:14.11    frame= 1846 fps= 25 q=28.0 size=    2048KiB time=00:01:13.76 bitrate= 227.5kbits/s speed=0.988x elapsed=0:01:14.62    frame= 1859 fps= 25 q=28.0 size=    2048KiB time=00:01:14.28 bitrate= 225.9kbits/s speed=0.989x elapsed=0:01:15.12    frame= 1871 fps= 25 q=28.0 size=    2048KiB time=00:01:14.76 bitrate= 224.4kbits/s speed=0.989x elapsed=0:01:15.62    frame= 1884 fps= 25 q=28.0 size=    2304KiB time=00:01:15.28 bitrate= 250.7kbits/s speed=0.989x elapsed=0:01:16.12    frame= 1896 fps= 25 q=28.0 size=    2304KiB time=00:01:15.76 bitrate= 249.1kbits/s speed=0.989x elapsed=0:01:16.62    frame= 1909 fps= 25 q=28.0 size=    2304KiB time=00:01:16.28 bitrate= 247.4kbits/s speed=0.989x elapsed=0:01:17.13    frame= 1921 fps= 25 q=28.0 size=    2304KiB time=00:01:16.76 bitrate= 245.9kbits/s speed=0.989x elapsed=0:01:17.63    frame= 1934 fps= 25 q=28.0 size=    2304KiB time=00:01:17.28 bitrate= 244.2kbits/s speed=0.989x elapsed=0:01:18.13    frame= 1946 fps= 25 q=28.0 size=    2304KiB time=00:01:17.76 bitrate= 242.7kbits/s speed=0.989x elapsed=0:01:18.63    frame= 1959 fps= 25 q=28.0 size=    2304KiB time=00:01:18.28 bitrate= 241.1kbits/s speed=0.989x elapsed=0:01:19.13    frame= 1971 fps= 25 q=28.0 size=    2304KiB time=00:01:18.76 bitrate= 239.6kbits/s speed=0.989x elapsed=0:01:19.63    frame= 1984 fps= 25 q=28.0 size=    2304KiB time=00:01:19.28 bitrate= 238.1kbits/s speed=0.989x elapsed=0:01:20.13    frame= 1996 fps= 25 q=25.0 size=    2304KiB time=00:01:19.76 bitrate= 236.6kbits/s speed=0.989x elapsed=0:01:20.63    frame= 2009 fps= 25 q=28.0 size=    2304KiB time=00:01:20.28 bitrate= 235.1kbits/s speed=0.989x elapsed=0:01:21.13    frame= 2022 fps= 25 q=28.0 size=    2304KiB time=00:01:20.80 bitrate= 233.6kbits/s speed=0.99x elapsed=0:01:21.64    frame= 2034 fps= 25 q=28.0 size=    2304KiB time=00:01:21.28 bitrate= 232.2kbits/s speed=0.989x elapsed=0:01:22.14    frame= 2047 fps= 25 q=28.0 size=    2304KiB time=00:01:21.80 bitrate= 230.7kbits/s speed=0.99x elapsed=0:01:22.64    frame= 2059 fps= 25 q=28.0 size=    2304KiB time=00:01:22.28 bitrate= 229.4kbits/s speed=0.99x elapsed=0:01:23.14    frame= 2072 fps= 25 q=28.0 size=    2304KiB time=00:01:22.80 bitrate= 228.0kbits/s speed=0.99x elapsed=0:01:23.64    frame= 2084 fps= 25 q=28.0 size=    2304KiB time=00:01:23.28 bitrate= 226.6kbits/s speed=0.99x elapsed=0:01:24.14    frame= 2097 fps= 25 q=28.0 size=    2304KiB time=00:01:23.80 bitrate= 225.2kbits/s speed=0.99x elapsed=0:01:24.64    frame= 2109 fps= 25 q=28.0 size=    2304KiB time=00:01:24.28 bitrate= 223.9kbits/s speed=0.99x elapsed=0:01:25.14    frame= 2122 fps= 25 q=28.0 size=    2304KiB time=00:01:24.80 bitrate= 222.6kbits/s speed=0.99x elapsed=0:01:25.65    frame= 2134 fps= 25 q=28.0 size=    2560KiB time=00:01:25.28 bitrate= 245.9kbits/s speed=0.99x elapsed=0:01:26.15    frame= 2147 fps= 25 q=28.0 size=    2560KiB time=00:01:25.80 bitrate= 244.4kbits/s speed=0.99x elapsed=0:01:26.65    frame= 2160 fps= 25 q=28.0 size=    2560KiB time=00:01:26.32 bitrate= 243.0kbits/s speed=0.99x elapsed=0:01:27.15    frame= 2172 fps= 25 q=28.0 size=    2560KiB time=00:01:26.80 bitrate= 241.6kbits/s speed=0.99x elapsed=0:01:27.65    frame= 2185 fps= 25 q=28.0 size=    2560KiB time=00:01:27.32 bitrate= 240.2kbits/s speed=0.991x elapsed=0:01:28.15    frame= 2197 fps= 25 q=28.0 size=    2560KiB time=00:01:27.80 bitrate= 238.9kbits/s speed=0.99x elapsed=0:01:28.65    frame= 2209 fps= 25 q=28.0 size=    2560KiB time=00:01:28.28 bitrate= 237.6kbits/s speed=0.99x elapsed=0:01:29.15    frame= 2222 fps= 25 q=28.0 size=    2560KiB time=00:01:28.80 bitrate= 236.2kbits/s speed=0.99x elapsed=0:01:29.65    frame= 2235 fps= 25 q=28.0 size=    2560KiB time=00:01:29.36 bitrate= 234.7kbits/s speed=0.991x elapsed=0:01:30.15    frame= 2247 fps= 25 q=28.0 size=    2560KiB time=00:01:29.84 bitrate= 233.4kbits/s speed=0.991x elapsed=0:01:30.65    frame= 2260 fps= 25 q=28.0 size=    2560KiB time=00:01:30.32 bitrate= 232.2kbits/s speed=0.991x elapsed=0:01:31.15    frame= 2272 fps= 25 q=28.0 size=    2560KiB time=00:01:30.80 bitrate= 231.0kbits/s speed=0.991x elapsed=0:01:31.65    frame= 2285 fps= 25 q=28.0 size=    2560KiB time=00:01:31.32 bitrate= 229.6kbits/s speed=0.991x elapsed=0:01:32.16    frame= 2297 fps= 25 q=28.0 size=    2560KiB time=00:01:31.80 bitrate= 228.4kbits/s speed=0.991x elapsed=0:01:32.66    frame= 2310 fps= 25 q=28.0 size=    2560KiB time=00:01:32.32 bitrate= 227.2kbits/s speed=0.991x elapsed=0:01:33.16    frame= 2322 fps= 25 q=28.0 size=    2560KiB time=00:01:32.80 bitrate= 226.0kbits/s speed=0.991x elapsed=0:01:33.66    frame= 2335 fps= 25 q=28.0 size=    2560KiB time=00:01:33.36 bitrate= 224.6kbits/s speed=0.991x elapsed=0:01:34.16    frame= 2347 fps= 25 q=28.0 size=    2560KiB time=00:01:33.80 bitrate= 223.6kbits/s speed=0.991x elapsed=0:01:34.66    frame= 2360 fps= 25 q=28.0 size=    2560KiB time=00:01:34.32 bitrate= 222.3kbits/s speed=0.991x elapsed=0:01:35.16    frame= 2372 fps= 25 q=28.0 size=    2560KiB time=00:01:34.80 bitrate= 221.2kbits/s speed=0.991x elapsed=0:01:35.66    frame= 2385 fps= 25 q=28.0 size=    2816KiB time=00:01:35.32 bitrate= 242.0kbits/s speed=0.991x elapsed=0:01:36.16    frame= 2397 fps= 25 q=28.0 size=    2816KiB time=00:01:35.80 bitrate= 240.8kbits/s speed=0.991x elapsed=0:01:36.66    frame= 2410 fps= 25 q=28.0 size=    2816KiB time=00:01:36.36 bitrate= 239.4kbits/s speed=0.992x elapsed=0:01:37.16    frame= 2422 fps= 25 q=28.0 size=    2816KiB time=00:01:36.80 bitrate= 238.3kbits/s speed=0.991x elapsed=0:01:37.66    frame= 2435 fps= 25 q=28.0 size=    2816KiB time=00:01:37.32 bitrate= 237.0kbits/s speed=0.991x elapsed=0:01:38.16    frame= 2447 fps= 25 q=28.0 size=    2816KiB time=00:01:37.80 bitrate= 235.9kbits/s speed=0.991x elapsed=0:01:38.66    frame= 2460 fps= 25 q=28.0 size=    2816KiB time=00:01:38.32 bitrate= 234.6kbits/s speed=0.991x elapsed=0:01:39.17    frame= 2472 fps= 25 q=28.0 size=    2816KiB time=00:01:38.80 bitrate= 233.5kbits/s speed=0.991x elapsed=0:01:39.67    frame= 2485 fps= 25 q=28.0 size=    2816KiB time=00:01:39.36 bitrate= 232.2kbits/s speed=0.992x elapsed=0:01:40.17    frame= 2497 fps= 25 q=28.0 size=    2816KiB time=00:01:39.80 bitrate= 231.1kbits/s speed=0.991x elapsed=0:01:40.67    frame= 2510 fps= 25 q=28.0 size=    3072KiB time=00:01:40.32 bitrate= 250.9kbits/s speed=0.992x elapsed=0:01:41.17    frame= 2522 fps= 25 q=28.0 size=    3072KiB time=00:01:40.80 bitrate= 249.7kbits/s speed=0.991x elapsed=0:01:41.67    frame= 2535 fps= 25 q=28.0 size=    3072KiB time=00:01:41.32 bitrate= 248.4kbits/s speed=0.992x elapsed=0:01:42.17    frame= 2548 fps= 25 q=28.0 size=    3072KiB time=00:01:41.84 bitrate= 247.1kbits/s speed=0.992x elapsed=0:01:42.67    frame= 2557 fps= 25 q=28.0 size=    3072KiB time=00:01:42.24 bitrate= 246.1kbits/s speed=0.991x elapsed=0:01:43.17    frame= 2572 fps= 25 q=28.0 size=    3072KiB time=00:01:42.84 bitrate= 244.7kbits/s speed=0.992x elapsed=0:01:43.67    frame= 2585 fps= 25 q=28.0 size=    3072KiB time=00:01:43.32 bitrate= 243.6kbits/s speed=0.992x elapsed=0:01:44.18    frame= 2597 fps= 25 q=28.0 size=    3072KiB time=00:01:43.80 bitrate= 242.4kbits/s speed=0.992x elapsed=0:01:44.68    frame= 2610 fps= 25 q=28.0 size=    3072KiB time=00:01:44.36 bitrate= 241.1kbits/s speed=0.992x elapsed=0:01:45.18    frame= 2623 fps= 25 q=28.0 size=    3072KiB time=00:01:44.84 bitrate= 240.0kbits/s speed=0.992x elapsed=0:01:45.68    frame= 2635 fps= 25 q=28.0 size=    3072KiB time=00:01:45.32 bitrate= 238.9kbits/s speed=0.992x elapsed=0:01:46.18    frame= 2648 fps= 25 q=28.0 size=    3072KiB time=00:01:45.84 bitrate= 237.8kbits/s speed=0.992x elapsed=0:01:46.68    frame= 2660 fps= 25 q=28.0 size=    3072KiB time=00:01:46.32 bitrate= 236.7kbits/s speed=0.992x elapsed=0:01:47.18    frame= 2673 fps= 25 q=28.0 size=    3072KiB time=00:01:46.88 bitrate= 235.5kbits/s speed=0.993x elapsed=0:01:47.68    frame= 2685 fps= 25 q=28.0 size=    3072KiB time=00:01:47.32 bitrate= 234.5kbits/s speed=0.992x elapsed=0:01:48.18    frame= 2696 fps= 25 q=28.0 size=    3072KiB time=00:01:47.80 bitrate= 233.4kbits/s speed=0.992x elapsed=0:01:48.68    frame= 2710 fps= 25 q=28.0 size=    3072KiB time=00:01:48.36 bitrate= 232.2kbits/s speed=0.992x elapsed=0:01:49.18    frame= 2723 fps= 25 q=28.0 size=    3072KiB time=00:01:48.84 bitrate= 231.2kbits/s speed=0.992x elapsed=0:01:49.68    frame= 2735 fps= 25 q=28.0 size=    3072KiB time=00:01:49.32 bitrate= 230.2kbits/s speed=0.992x elapsed=0:01:50.18    frame= 2748 fps= 25 q=28.0 size=    3072KiB time=00:01:49.84 bitrate= 229.1kbits/s speed=0.992x elapsed=0:01:50.69    frame= 2760 fps= 25 q=28.0 size=    3328KiB time=00:01:50.32 bitrate= 247.1kbits/s speed=0.992x elapsed=0:01:51.19    frame= 2773 fps= 25 q=28.0 size=    3328KiB time=00:01:50.84 bitrate= 246.0kbits/s speed=0.992x elapsed=0:01:51.69    frame= 2785 fps= 25 q=28.0 size=    3328KiB time=00:01:51.32 bitrate= 244.9kbits/s speed=0.992x elapsed=0:01:52.19    frame= 2798 fps= 25 q=28.0 size=    3328KiB time=00:01:51.84 bitrate= 243.8kbits/s speed=0.992x elapsed=0:01:52.69    frame= 2810 fps= 25 q=28.0 size=    3328KiB time=00:01:52.32 bitrate= 242.7kbits/s speed=0.992x elapsed=0:01:53.19    frame= 2823 fps= 25 q=28.0 size=    3328KiB time=00:01:52.84 bitrate= 241.6kbits/s speed=0.992x elapsed=0:01:53.69    frame= 2836 fps= 25 q=28.0 size=    3328KiB time=00:01:53.36 bitrate= 240.5kbits/s speed=0.993x elapsed=0:01:54.19    frame= 2848 fps= 25 q=28.0 size=    3328KiB time=00:01:53.84 bitrate= 239.5kbits/s speed=0.993x elapsed=0:01:54.69    frame= 2861 fps= 25 q=28.0 size=    3328KiB time=00:01:54.36 bitrate= 238.4kbits/s speed=0.993x elapsed=0:01:55.19    frame= 2873 fps= 25 q=28.0 size=    3328KiB time=00:01:54.84 bitrate= 237.4kbits/s speed=0.993x elapsed=0:01:55.69    frame= 2886 fps= 25 q=28.0 size=    3584KiB time=00:01:55.36 bitrate= 254.5kbits/s speed=0.993x elapsed=0:01:56.19    frame= 2898 fps= 25 q=28.0 size=    3584KiB time=00:01:55.84 bitrate= 253.5kbits/s speed=0.993x elapsed=0:01:56.69    frame= 2910 fps= 25 q=28.0 size=    3584KiB time=00:01:56.32 bitrate= 252.4kbits/s speed=0.992x elapsed=0:01:57.19    frame= 2923 fps= 25 q=28.0 size=    3584KiB time=00:01:56.84 bitrate= 251.3kbits/s speed=0.993x elapsed=0:01:57.70    frame= 2936 fps= 25 q=28.0 size=    3584KiB time=00:01:57.36 bitrate= 250.2kbits/s speed=0.993x elapsed=0:01:58.20    frame= 2948 fps= 25 q=28.0 size=    3584KiB time=00:01:57.84 bitrate= 249.2kbits/s speed=0.993x elapsed=0:01:58.70    frame= 2961 fps= 25 q=28.0 size=    3584KiB time=00:01:58.36 bitrate= 248.1kbits/s speed=0.993x elapsed=0:01:59.20    frame= 2973 fps= 25 q=28.0 size=    3584KiB time=00:01:58.84 bitrate= 247.1kbits/s speed=0.993x elapsed=0:01:59.70    frame= 2986 fps= 25 q=28.0 size=    3584KiB time=00:01:59.36 bitrate= 246.0kbits/s speed=0.993x elapsed=0:02:00.20    frame= 2998 fps= 25 q=28.0 size=    3584KiB time=00:01:59.88 bitrate= 244.9kbits/s speed=0.993x elapsed=0:02:00.70    frame= 3011 fps= 25 q=28.0 size=    3584KiB time=00:02:00.36 bitrate= 243.9kbits/s speed=0.993x elapsed=0:02:01.20    frame= 3023 fps= 25 q=28.0 size=    3584KiB time=00:02:00.84 bitrate= 243.0kbits/s speed=0.993x elapsed=0:02:01.70    frame= 3036 fps= 25 q=28.0 size=    3584KiB time=00:02:01.40 bitrate= 241.8kbits/s speed=0.993x elapsed=0:02:02.20    frame= 3049 fps= 25 q=28.0 size=    3584KiB time=00:02:01.92 bitrate= 240.8kbits/s speed=0.994x elapsed=0:02:02.71    frame= 3061 fps= 25 q=28.0 size=    3584KiB time=00:02:02.36 bitrate= 239.9kbits/s speed=0.993x elapsed=0:02:03.21    frame= 3073 fps= 25 q=28.0 size=    3584KiB time=00:02:02.84 bitrate= 239.0kbits/s speed=0.993x elapsed=0:02:03.71    frame= 3086 fps= 25 q=28.0 size=    3584KiB time=00:02:03.36 bitrate= 238.0kbits/s speed=0.993x elapsed=0:02:04.21    frame= 3099 fps= 25 q=28.0 size=    3584KiB time=00:02:03.88 bitrate= 237.0kbits/s speed=0.993x elapsed=0:02:04.71    frame= 3111 fps= 25 q=28.0 size=    3584KiB time=00:02:04.40 bitrate= 236.0kbits/s speed=0.993x elapsed=0:02:05.21    frame= 3124 fps= 25 q=28.0 size=    3584KiB time=00:02:04.92 bitrate= 235.0kbits/s speed=0.994x elapsed=0:02:05.72    frame= 3136 fps= 25 q=28.0 size=    3840KiB time=00:02:05.36 bitrate= 250.9kbits/s speed=0.993x elapsed=0:02:06.22    frame= 3149 fps= 25 q=28.0 size=    3840KiB time=00:02:05.88 bitrate= 249.9kbits/s speed=0.993x elapsed=0:02:06.72    frame= 3161 fps= 25 q=28.0 size=    3840KiB time=00:02:06.36 bitrate= 248.9kbits/s speed=0.993x elapsed=0:02:07.22    frame= 3173 fps= 25 q=28.0 size=    3840KiB time=00:02:06.88 bitrate= 247.9kbits/s speed=0.993x elapsed=0:02:07.72    frame= 3186 fps= 25 q=28.0 size=    3840KiB time=00:02:07.36 bitrate= 247.0kbits/s speed=0.993x elapsed=0:02:08.22    frame= 3199 fps= 25 q=28.0 size=    3840KiB time=00:02:07.92 bitrate= 245.9kbits/s speed=0.994x elapsed=0:02:08.72    frame= 3211 fps= 25 q=28.0 size=    3840KiB time=00:02:08.36 bitrate= 245.1kbits/s speed=0.993x elapsed=0:02:09.22    frame= 3224 fps= 25 q=28.0 size=    3840KiB time=00:02:08.88 bitrate= 244.1kbits/s speed=0.993x elapsed=0:02:09.72    frame= 3236 fps= 25 q=28.0 size=    3840KiB time=00:02:09.36 bitrate= 243.2kbits/s speed=0.993x elapsed=0:02:10.22    frame= 3249 fps= 25 q=28.0 size=    3840KiB time=00:02:09.88 bitrate= 242.2kbits/s speed=0.993x elapsed=0:02:10.72    frame= 3261 fps= 25 q=28.0 size=    3840KiB time=00:02:10.36 bitrate= 241.3kbits/s speed=0.993x elapsed=0:02:11.22    frame= 3274 fps= 25 q=28.0 size=    3840KiB time=00:02:10.88 bitrate= 240.4kbits/s speed=0.994x elapsed=0:02:11.73    frame= 3286 fps= 25 q=28.0 size=    3840KiB time=00:02:11.36 bitrate= 239.5kbits/s speed=0.993x elapsed=0:02:12.23    frame= 3299 fps= 25 q=28.0 size=    3840KiB time=00:02:11.88 bitrate= 238.5kbits/s speed=0.994x elapsed=0:02:12.73    frame= 3312 fps= 25 q=28.0 size=    3840KiB time=00:02:12.40 bitrate= 237.6kbits/s speed=0.994x elapsed=0:02:13.23    frame= 3324 fps= 25 q=28.0 size=    3840KiB time=00:02:12.92 bitrate= 236.7kbits/s speed=0.994x elapsed=0:02:13.73    frame= 3336 fps= 25 q=28.0 size=    3840KiB time=00:02:13.36 bitrate= 235.9kbits/s speed=0.993x elapsed=0:02:14.23    frame= 3349 fps= 25 q=28.0 size=    3840KiB time=00:02:13.92 bitrate= 234.9kbits/s speed=0.994x elapsed=0:02:14.73    frame= 3362 fps= 25 q=28.0 size=    3840KiB time=00:02:14.40 bitrate= 234.1kbits/s speed=0.994x elapsed=0:02:15.23    frame= 3374 fps= 25 q=28.0 size=    3840KiB time=00:02:14.88 bitrate= 233.2kbits/s speed=0.994x elapsed=0:02:15.73    frame= 3387 fps= 25 q=28.0 size=    4096KiB time=00:02:15.40 bitrate= 247.8kbits/s speed=0.994x elapsed=0:02:16.23    frame= 3399 fps= 25 q=28.0 size=    4096KiB time=00:02:15.92 bitrate= 246.9kbits/s speed=0.994x elapsed=0:02:16.73    frame= 3412 fps= 25 q=28.0 size=    4096KiB time=00:02:16.40 bitrate= 246.0kbits/s speed=0.994x elapsed=0:02:17.23    frame= 3424 fps= 25 q=28.0 size=    4096KiB time=00:02:16.88 bitrate= 245.1kbits/s speed=0.994x elapsed=0:02:17.73    frame= 3437 fps= 25 q=28.0 size=    4096KiB time=00:02:17.40 bitrate= 244.2kbits/s speed=0.994x elapsed=0:02:18.23    frame= 3449 fps= 25 q=28.0 size=    4096KiB time=00:02:17.88 bitrate= 243.4kbits/s speed=0.994x elapsed=0:02:18.73    frame= 3461 fps= 25 q=28.0 size=    4096KiB time=00:02:18.40 bitrate= 242.4kbits/s speed=0.994x elapsed=0:02:19.23    frame= 3474 fps= 25 q=28.0 size=    4096KiB time=00:02:18.88 bitrate= 241.6kbits/s speed=0.994x elapsed=0:02:19.73    frame= 3487 fps= 25 q=28.0 size=    4096KiB time=00:02:19.40 bitrate= 240.7kbits/s speed=0.994x elapsed=0:02:20.23    frame= 3499 fps= 25 q=28.0 size=    4096KiB time=00:02:19.88 bitrate= 239.9kbits/s speed=0.994x elapsed=0:02:20.73    frame= 3512 fps= 25 q=28.0 size=    4096KiB time=00:02:20.40 bitrate= 239.0kbits/s speed=0.994x elapsed=0:02:21.23    frame= 3524 fps= 25 q=28.0 size=    4096KiB time=00:02:20.88 bitrate= 238.2kbits/s speed=0.994x elapsed=0:02:21.73    frame= 3537 fps= 25 q=28.0 size=    4096KiB time=00:02:21.40 bitrate= 237.3kbits/s speed=0.994x elapsed=0:02:22.23    frame= 3549 fps= 25 q=28.0 size=    4096KiB time=00:02:21.88 bitrate= 236.5kbits/s speed=0.994x elapsed=0:02:22.73    frame= 3562 fps= 25 q=28.0 size=    4096KiB time=00:02:22.40 bitrate= 235.6kbits/s speed=0.994x elapsed=0:02:23.24    [out#0/matroska @ 0x55bfef417500] video:4518KiB audio:0KiB subtitle:0KiB other streams:0KiB global headers:0KiB muxing overhead: 0.574529%
frame= 3594 fps= 25 q=-1.0 Lsize=    4544KiB time=00:02:23.68 bitrate= 259.1kbits/s speed=0.998x elapsed=0:02:23.90    
[libx264 @ 0x55bfef418f00] frame I:15    Avg QP:11.65  size:118433
[libx264 @ 0x55bfef418f00] frame P:907   Avg QP:17.66  size:  1704
[libx264 @ 0x55bfef418f00] frame B:2672  Avg QP:25.04  size:   488
[libx264 @ 0x55bfef418f00] consecutive B-frames:  0.8%  0.1%  0.4% 98.7%
[libx264 @ 0x55bfef418f00] mb I  I16..4: 88.9%  1.8%  9.3%
[libx264 @ 0x55bfef418f00] mb P  I16..4:  0.2%  0.1%  0.0%  P16..4:  0.3%  0.2%  0.1%  0.0%  0.0%    skip:99.1%
[libx264 @ 0x55bfef418f00] mb B  I16..4:  0.0%  0.0%  0.0%  B16..8:  0.2%  0.1%  0.0%  direct: 0.0%  skip:99.6%  L0:45.7% L1:47.3% BI: 7.0%
[libx264 @ 0x55bfef418f00] 8x8 transform intra:4.0% inter:2.0%
[libx264 @ 0x55bfef418f00] coded y,uvDC,uvAC intra: 14.5% 21.3% 17.4% inter: 0.1% 0.1% 0.0%
[libx264 @ 0x55bfef418f00] i16 v,h,dc,p: 69% 29%  2%  0%
[libx264 @ 0x55bfef418f00] i8 v,h,dc,ddl,ddr,vr,hd,vl,hu: 15% 20% 60%  1%  1%  3%  0%  0%  1%
[libx264 @ 0x55bfef418f00] i4 v,h,dc,ddl,ddr,vr,hd,vl,hu: 33% 27% 21%  2%  2%  5%  2%  4%  2%
[libx264 @ 0x55bfef418f00] i8c dc,h,v,p: 61% 30%  9%  0%
[libx264 @ 0x55bfef418f00] Weighted P-Frames: Y:0.0% UV:0.0%
[libx264 @ 0x55bfef418f00] kb/s:257.32
Exiting normally, received signal 2.
